# xmcd
#
# Track frame offsets:
#	182
#	21190
#	41565
#	62007
#	79057
#	97212
#	116735
#	133025
#	153145
#	168420
#
# Disc length: 2472 seconds
#
# Revision: 1
# Processed by: cddbd v1.5PL3 Copyright (c) Steve Scherf et al.
# Submitted via: audiograbber 1.83.01
#
DISCID=7f09a60a
DTITLE=Wendy Chamlin - Wendy Chamlin
DYEAR=1993
DGENRE=Country
TTITLE0=Hear The Sounds
TTITLE1=She Gives It All Away
TTITLE2=Johnny's Having A Breakdown
TTITLE3=Fall From Grace
TTITLE4=Nite You Said Goodbye
TTITLE5=Back In Town
TTITLE6=My Secret
TTITLE7=Time Is A Healer
TTITLE8=I Made A Mistake
TTITLE9=Darker Part Of Suzanne
EXTD=
EXTT0=
EXTT1=
EXTT2=
EXTT3=
EXTT4=
EXTT5=
EXTT6=
EXTT7=
EXTT8=
EXTT9=
PLAYORDER=
